<svg width="256" height="256" viewBox="0 0 256 256" fill="none" xmlns="http://www.w3.org/2000/svg">
<rect width="256" height="256" rx="128" fill="#100F0D"/>
<path d="M70.3295 178.643L100.732 134.852C101.503 133.743 103.13 133.7 103.957 134.769L122.47 158.682C123 159.366 123.029 160.314 122.543 161.03L108.399 181.853C107.871 182.63 106.993 183.095 106.053 183.095H72.6587C70.3703 183.095 69.0243 180.523 70.3295 178.643Z" fill="#DC1E25"/>
<path d="M182.192 178.61L153.282 138.191C152.177 136.646 149.896 136.604 148.733 138.105L133.174 158.202C132.423 159.172 132.381 160.516 133.071 161.531L146.874 181.853C147.402 182.63 148.28 183.095 149.219 183.095H179.885C182.193 183.095 183.535 180.487 182.192 178.61Z" fill="#DC1E25"/>
<path d="M69.3718 74.7724L127.967 153.244L237.273 12.991L130.382 111.323L101.647 71.0931C101.085 70.3065 100.175 69.8419 99.2094 69.848L71.7356 70.0212C69.2974 70.0365 67.9137 72.8191 69.3718 74.7724Z" fill="#DC1E25"/>
</svg>
